<?xml version="1.0" encoding="UTF-8"?><svg id="Layer_1" xmlns="http://www.w3.org/2000/svg" width="424.34" height="424.34" viewBox="0 0 424.34 424.34"><defs><style>.cls-1{fill:#d4d75e;}.cls-1,.cls-2,.cls-3,.cls-4,.cls-5,.cls-6{stroke-width:0px;}.cls-2{fill:#010101;}.cls-3{fill:#8dc641;}.cls-4{fill:#55a045;}.cls-5{fill:#adc637;}.cls-6{fill:#046937;}</style></defs><path class="cls-6" d="M245.12,57.59c73.28,92.19-115.67,166.87-14.84,54.63-3.42,1.02-53.81,40-34.21,65.67,31.89,40.91,79.39,44.93,52.91,105.49-3.86,5.79-12.17,4.45-12.32-3.27-.15-7.72,4.45-13.81,3.86-25.09,0-27.41-73.21-60.86-73.19-89.17.07-71.87,77.79-53.84,77.79-108.27Z"/><path class="cls-3" d="M238.42,303.36c-.37,21.55-32.43,21.55-32.79,0,.37-21.55,32.43-21.55,32.79,0Z"/><path class="cls-3" d="M203.26,268.54c-.33,19.32-29.07,19.32-29.39,0,.33-19.32,29.07-19.31,29.39,0Z"/><path class="cls-3" d="M259.2,170.11c-.23,13.66-20.55,13.66-20.78,0,.23-13.66,20.55-13.66,20.78,0Z"/><path class="cls-3" d="M169.79,244.23c-.22-14.02,6.16-31.15,20.11-45.32,14.25-14.25,23.68-22.86,31.4-22.86,8.33.83,5.4,7.11,1.14,9.82-7.56,5.82-40.26,25.71-41.15,57.88-.82,29.75,44.24,24.35,42.75,64.72h0s-7.63,4.99-9.5-2.16c-6.41-24.48-42.79-31.85-44.75-62.08Z"/><path class="cls-3" d="M193.96,257.1l36.97-29.54s6.95,1.52,6.65,8.37l-37.41,29.71-6.21-8.54Z"/><path class="cls-3" d="M175.9,243.98l38.8-30.64s5.83.43,4.9,6.13l-39,30.87-4.7-6.35Z"/><path class="cls-3" d="M202.32,278.84l39.31-29.98s5.82.53,4.8,6.21l-39.52,30.2-4.59-6.43Z"/><path class="cls-1" d="M379.09,209.29c-41.35-6.54-84.09-4.06-125.13,9.37-4.96-6.23-11.15-11.8-17.78-17.35,43.66-24.07,90.78-33.8,137.19-31.83,3.44,12.73,5.41,26.07,5.72,39.81Z"/><path class="cls-1" d="M378.93,221.24c-.65,13.42-2.9,26.44-6.55,38.85-35.27-7.43-71.64-8.37-107.39-1.57,1.32-10.37.1-19.53-3.63-27.9-.54-1.23-1.14-2.42-1.78-3.59,39.3-10.86,79.99-12.34,119.35-5.79Z"/><path class="cls-4" d="M369.74,268.28c-4.87,13.83-11.5,26.83-19.64,38.73-31.36-8.98-64.1-12.87-96.76-10.71-.85-1.25-1.7-2.49-2.56-3.73,2.05-1.13,3.87-2.79,5.27-4.88l.29-.44.21-.48c3.01-6.88,5.25-13.29,6.74-19.31,35.44-6.89,71.56-6.22,106.45.82Z"/><path class="cls-4" d="M345.31,313.66c-15.7,20.73-36.13,37.69-59.66,49.27-6.9-21.47-16.46-41.75-28.29-60.45,29.73-.97,59.4,2.99,87.95,11.18Z"/><path class="cls-5" d="M280.62,365.31c-2.97,1.34-5.99,2.6-9.05,3.76-8.98-17.57-19.49-33.47-31.25-47.75,3.09-3.79,5.08-8.8,5.18-14.99v-.21c-.08-4.68-1.23-8.68-3.13-11.99.62.08,1.25.13,1.92.13.38,0,.75-.02,1.12-.05,14.36,20.76,26.31,44.43,35.21,71.1Z"/><path class="cls-5" d="M266.04,371.07c-8,2.74-16.28,4.89-24.78,6.38-46.24-58.46-112.38-90.4-182.61-98.8-5.7-13.27-9.72-27.42-11.8-42.19,40.58,3.37,80.42,14.82,116.27,34.42,1.47,12.54,11.78,19.08,21.87,19.08,2.07,0,4.14-.28,6.15-.83,2.99,2.59,5.81,5.19,8.29,7.9-1.06,2.67-1.68,5.71-1.74,9.09v.21c.27,15.46,12.23,23.55,23.91,23.55,4.23,0,8.49-1.07,12.23-3.16,11.95,13.33,22.78,28.09,32.21,44.35Z"/><path class="cls-4" d="M190.02,378.53c-27.44-3.66-52.79-13.99-74.35-29.32,25.99,6.21,51.08,15.95,74.35,29.32Z"/><path class="cls-5" d="M158.5,241.94c.38,5.89,1.8,11.07,3.93,15.72-36.02-19.28-76.07-30.13-116.81-32.96-.27-3.86-.41-7.75-.41-11.67,0-10.89,1.05-21.54,3.05-31.85,40.22,4.19,79.49,16.3,114.55,36.71-2.93,7.91-4.45,15.99-4.32,23.76v.29Z"/><path class="cls-4" d="M212.17,0C95.18,0,0,95.18,0,212.17s95.18,212.17,212.17,212.17,212.17-95.18,212.17-212.17S329.16,0,212.17,0ZM212.17,419.28c-114.2,0-207.11-92.91-207.11-207.11S97.97,5.06,212.17,5.06s207.11,92.91,207.11,207.11-92.91,207.11-207.11,207.11Z"/><path class="cls-2" d="M222.53,396.31l-.28,2.32-1.58.13-.4-4.92,12.53-1.01.17,2.05c-5.12,4.69-7.84,7.8-7.58,11.03.19,2.3,1.51,3.53,3.48,3.37.47-.04.98-.18,1.48-.43l-.27-3.34c.54-.36,1.08-.56,1.59-.6,1.14-.09,1.92.58,2.01,1.66.17,2.15-2.04,4.15-5.77,4.45-3.47.28-5.83-1.59-6.08-4.59-.27-3.31,2.51-6.33,7.95-10.7l-7.25.58Z"/><path class="cls-2" d="M205.05,402.46c.05-5.72,2.68-8.99,6.7-8.96,4,.04,6.54,3.33,6.49,9.07-.05,5.74-2.65,9.02-6.65,8.98-4.03-.04-6.6-3.38-6.54-9.1ZM214.71,402.65c.05-5.09-.95-7.65-3-7.66-2.05-.02-3.09,2.49-3.13,7.53-.05,5.04.95,7.57,3,7.59,2,.02,3.09-2.47,3.13-7.45Z"/><path class="cls-2" d="M189.65,401.1c.53-5.69,3.43-8.73,7.44-8.36,3.98.37,6.24,3.87,5.7,9.59-.54,5.71-3.4,8.76-7.39,8.38-4.01-.38-6.28-3.93-5.75-9.62ZM199.26,402.1c.47-5.07-.3-7.7-2.34-7.89-2.04-.19-3.29,2.22-3.76,7.24-.47,5.02.3,7.62,2.34,7.81,1.99.19,3.28-2.2,3.75-7.16Z"/><path class="cls-2" d="M174.38,407.31l.48-2.66,7.98,1.44.78-4.32c-1.19.18-2.22.18-3.2,0-3.55-.64-5.44-3.06-4.9-6.06.62-3.43,3.96-5.44,8.33-4.65,2.94.53,4.51,2.24,4.2,3.92-.16.87-1.06,1.47-2.21,1.27-.28-.05-.57-.18-.91-.35l-.35-3.05c-.39-.18-.77-.27-1.18-.34-2.07-.37-3.97.92-4.35,3.04-.41,2.27,1,4.01,3.81,4.51,1.05.19,2.12.25,3.16.2l-1.59,8.85-10.05-1.81Z"/><path class="cls-4" d="M212.17,41.01c-94.85,0-172.02,77.17-172.02,172.02s77.17,172.02,172.02,172.02,172.02-77.17,172.02-172.02S307.02,41.01,212.17,41.01ZM372.38,260.09c-.81,2.76-1.7,5.49-2.64,8.19-4.87,13.83-11.5,26.83-19.64,38.73-1.54,2.26-3.14,4.48-4.79,6.65-15.7,20.73-36.13,37.69-59.66,49.27-1.66.82-3.34,1.62-5.03,2.38-2.97,1.34-5.99,2.6-9.05,3.76-1.83.7-3.67,1.37-5.53,2-8,2.74-16.28,4.89-24.78,6.38-2.89.51-5.8.95-8.73,1.3-6.67.82-13.47,1.24-20.36,1.24-2.91,0-5.8-.07-8.67-.23-4.54-.23-9.04-.64-13.48-1.23-27.44-3.66-52.79-13.99-74.35-29.32-4.68-3.33-9.18-6.89-13.48-10.66-16.2-14.21-29.63-31.49-39.37-50.93-1.48-2.94-2.87-5.93-4.17-8.97-5.7-13.27-9.72-27.42-11.8-42.19-.55-3.88-.96-7.8-1.23-11.76-.27-3.86-.41-7.75-.41-11.67,0-10.89,1.05-21.54,3.05-31.85C63.17,104.3,131,46.07,212.17,46.07c77,0,141.99,52.4,161.2,123.41,3.44,12.73,5.41,26.07,5.72,39.81.03,1.24.04,2.49.04,3.74,0,2.75-.07,5.49-.2,8.21-.65,13.42-2.9,26.44-6.55,38.85Z"/><path class="cls-4" d="M232.53,378.75c-6.67.82-13.47,1.24-20.36,1.24-2.91,0-5.8-.07-8.67-.23-30.76-20.52-65.34-34.17-101.31-41.21-16.2-14.21-29.63-31.49-39.37-50.93,64.39,9.24,125.48,39.09,169.71,91.13Z"/><path class="cls-2" d="M36.81,180.1c-.38,2.26-1.22,4.16-2.4,5.54-2.5,2.94-6.35,4.29-10.37,3.6-3.2-.55-5.81-2.15-7.49-4.63-1.58-2.31-2.1-5.14-1.54-8.41.37-2.17,1.14-4.23,2.25-6.21l5.25.89-.39,2.32-3.46.03-.61.35c-.46.79-.75,1.58-.89,2.4-.73,4.3,2.09,7.69,7.65,8.64,5.62.96,9.44-1.34,10.24-6.02.09-.53.1-1.18.04-1.96l-.39-.55-3.67-1.43.38-2.26,5.4.92c.4,2.23.4,4.5,0,6.79Z"/><path class="cls-2" d="M20.56,154.75c1.41-4.73,3.97-6.63,7.36-5.62,2.81.84,4.04,3.17,3.65,6.81.77-1.36,1.66-2.23,2.85-2.64,1.63-.55,3.35-.3,5.05-.42,1.87-.14,2.6-.92,3.21-2.96.04-.12.07-.24.12-.4l1.46.44c-.16,1.11-.38,2.18-.67,3.13-.39,1.31-1.1,2.33-1.89,2.89-1.7,1.22-3.15,1.09-4.76,1.14-3.18.08-4.73.48-5.65,3.56-.04.15-.1.34-.16.52l6.87,2.05.63-.34.71-1.82,1.5.45-2.57,8.61-1.5-.45.38-1.85-.34-.63-16.27-4.86-.57.36-.69,1.76-1.5-.45,2.77-9.28ZM29.37,160.67c.15-.39.26-.75.36-1.09.98-3.27.16-5.21-2.65-6.04-2.5-.75-4.37.39-5.26,3.35l-.42,1.4,7.97,2.38Z"/><path class="cls-2" d="M28.93,137.45c-.86-2.59-.68-5.24.54-7.94,1.13-2.5,2.84-4.28,5.15-5.37,2.93-1.37,6.26-1.33,9.55.15,3.08,1.39,5.21,3.64,6.18,6.53.86,2.52.71,5.25-.39,7.69-2.71,6.01-8.63,8.13-14.82,5.34-3.17-1.43-5.26-3.6-6.2-6.4ZM37.14,139.55c5.34,2.41,9.54,1.48,10.94-1.63,1.44-3.19-.66-6.9-5.8-9.22-5.37-2.42-9.5-1.56-10.93,1.6-1.45,3.22.59,6.91,5.79,9.25Z"/><path class="cls-2" d="M54.15,125.06l.85-1.69-.13-.76-14.47-8.89-.63.17-1.24,1.71-1.33-.82,4.5-7.33c3.09-5.02,6.13-6.45,10.04-4.04,3.75,2.3,4.46,6.25,1.66,10.82-.25.41-.66,1.02-1.22,1.8l4.89,3,.69-.14,1.32-1.84,1.33.82-4.92,8.01-1.33-.82ZM51.28,114.14c1.73-2.82,1.14-5.14-1.74-6.9-2.58-1.58-4.84-1.14-6.35,1.33l-.87,1.41,8.31,5.1c.24-.34.47-.65.65-.94Z"/><path class="cls-2" d="M62.91,78.98c3.14-3.52,5.97-4.16,8.44-1.96,1.86,1.65,2.13,3.94.71,6.73,2.53-2.74,5.36-3,7.69-.92,3,2.67,2.8,6.25-.67,10.15l-6.55,7.36-1.17-1.04,1.13-1.51-.04-.72-12.69-11.29-.67.08-1.37,1.3-1.17-1.04,6.35-7.14ZM68.59,86.94c2.2-2.48,2.27-4.47.12-6.37-1.86-1.65-3.69-1.36-5.68.87-.28.31-.53.64-.8,1l5.76,5.13c.21-.19.4-.41.6-.62ZM76.58,93.15c2.46-2.76,2.63-4.83.35-6.86-2.02-1.8-4.08-1.5-6.2.88-.34.38-.8.9-1.35,1.61l6.14,5.47c.38-.38.75-.74,1.06-1.1Z"/><path class="cls-2" d="M85.93,83.47l1.43-1.55.03-.72-11.56-12.44-.68.02-1.65,1.32-1.06-1.14,6.97-6.49,1.06,1.14-1.46,1.57-.07.67,11.56,12.43.72.03,1.67-1.34,1.06,1.14-6.98,6.49-1.06-1.14Z"/><path class="cls-2" d="M87.55,58.48c.5-2.68,1.93-4.91,4.3-6.69,2.19-1.65,4.55-2.38,7.1-2.22,3.22.21,6.13,1.85,8.29,4.73,2.03,2.7,2.81,5.7,2.27,8.7-.46,2.62-1.91,4.94-4.05,6.55-5.28,3.96-11.48,2.96-15.56-2.47-2.08-2.78-2.88-5.69-2.35-8.6ZM93.74,64.28c3.52,4.69,7.65,5.89,10.38,3.85,2.8-2.1,2.75-6.37-.64-10.88-3.54-4.71-7.57-5.95-10.35-3.86-2.83,2.12-2.81,6.34.61,10.9Z"/><path class="cls-2" d="M121.47,33.66l2.79,4.9-1.91,1.09-2.16-2.7-.62-.12-3.32,1.89,8.56,15.07.72.18,1.88-.88.77,1.36-8.28,4.71-.77-1.36,1.72-1.16.22-.71-8.56-15.07-3.32,1.89-.24.61,1.24,3.22-1.91,1.09-2.79-4.9,15.98-9.08Z"/><path class="cls-2" d="M133.67,49.74l1.72-.91.27-.67-6.67-15.62-.64-.21-1.85.62-.61-1.44,14.77-6.31,1.97,4.6-2.05.88-1.54-2.39-.54-.22-5.83,2.49,2.98,6.98,3.81-1.63.23-.59-.61-2.23,1.73-.74,2.9,6.8-1.73.74-1.19-1.98-.59-.24-3.81,1.63,3.25,7.62,6.8-2.9.18-.63-.83-3.32,1.99-.85,2.24,5.25-15.74,6.72-.61-1.44Z"/><path class="cls-2" d="M164.09,40.47c-2.2.65-4.27.73-6.03.28-3.74-.96-6.64-3.82-7.8-7.73-.92-3.12-.62-6.16.87-8.76,1.38-2.43,3.69-4.15,6.87-5.08,2.11-.62,4.3-.84,6.57-.71l1.51,5.11-2.26.67-1.54-3.1-.58-.39c-.92-.06-1.75.02-2.55.25-4.19,1.24-5.99,5.26-4.4,10.67,1.62,5.47,5.35,7.89,9.91,6.55.52-.15,1.1-.43,1.78-.83l.32-.59-.33-3.92,2.2-.65,1.55,5.26c-1.83,1.34-3.86,2.33-6.09,2.99Z"/><path class="cls-2" d="M179.19,14.83l.24,1.54-1.86.45-.42.58,1.08,6.89,9.1-1.42-1.08-6.89-.55-.43-1.91.14-.24-1.54,8.88-1.39.24,1.54-1.8.44-.43.58,2.61,16.72.58.43,1.85-.13.24,1.54-8.88,1.38-.24-1.54,1.87-.45.39-.58-1.24-7.93-9.1,1.42,1.24,7.93.58.42,1.91-.14.24,1.54-8.91,1.39-.24-1.54,1.8-.44.42-.58-2.61-16.72-.58-.43-1.85.13-.24-1.54,8.91-1.39Z"/><path class="cls-2" d="M198.52,32.16l1.88-.28.56-.58-.25-16.85-.45-.44-2.04-.13-.02-1.56,7.33-.11v.86s9.99,14.98,9.99,14.98l-.2-13.63-.58-.6-1.95-.23-.02-1.5,7.26-.11.02,1.5-1.88.28-.53.61.29,19.02-3.57.05-11.28-16.94.22,14.75.52.57,1.98.23.02,1.53-7.26.11-.02-1.53Z"/><path class="cls-2" d="M228.9,15c2.22-1.59,4.8-2.2,7.74-1.84,2.72.34,4.93,1.44,6.65,3.33,2.18,2.39,3.13,5.59,2.69,9.16-.41,3.35-1.94,6.05-4.4,7.84-2.15,1.56-4.8,2.23-7.46,1.9-6.54-.81-10.32-5.83-9.49-12.57.43-3.45,1.88-6.09,4.27-7.82ZM229.33,23.47c-.72,5.82,1.42,9.55,4.81,9.97,3.48.43,6.4-2.68,7.09-8.27.72-5.85-1.33-9.54-4.77-9.97-3.51-.43-6.42,2.61-7.12,8.27Z"/><path class="cls-2" d="M248.15,35.43l1.93.31.65-.36,4.09-16.48-.33-.54-1.94-.65.38-1.52,8.91,2.21-.38,1.52-1.92-.31-.6.31-4.18,16.85,5.94,1.47.52-.4,1.4-3.66,2.29.57-1.5,6.06-15.62-3.87.38-1.52Z"/><path class="cls-2" d="M276.06,24.89c2.54-1.01,5.19-.98,7.96.07,2.56.98,4.43,2.58,5.66,4.82,1.54,2.84,1.7,6.17.41,9.54-1.21,3.15-3.33,5.41-6.15,6.55-2.46,1-5.2,1.01-7.7.06-6.16-2.36-8.62-8.14-6.2-14.48,1.24-3.24,3.28-5.46,6.02-6.57ZM274.45,33.21c-2.09,5.47-.91,9.61,2.27,10.83,3.27,1.25,6.85-1.06,8.87-6.33,2.11-5.5,1-9.58-2.24-10.82-3.3-1.26-6.86.99-8.9,6.32Z"/><path class="cls-2" d="M312.7,51.53l-.75,1.37-1.7-.75-.66.15-3.58,6.5c-2.56-.43-4.84-1.17-6.88-2.29-5.86-3.22-7.62-9.42-4.42-15.23,3.15-5.72,9.24-7.35,15.44-3.95,1.84,1.01,3.66,2.41,5.38,4.16l-2.61,4.75-2.04-1.12,1.1-3.25-.14-.73c-.58-.72-1.26-1.28-2.07-1.72-4.16-2.29-8.32-.8-11.01,4.09-2.76,5.02-1.75,9.4,2.55,11.76.28.15.82.42,1.58.76l3.13-5.69-.23-.64-1.99-1.28.75-1.37,8.15,4.48Z"/><path class="cls-2" d="M328.47,49.39l-.92,1.26-1.54-.92-.46.14-1.22,9.11,8.27-3.64.09-.56-1.34-1.41.9-1.24,5.62,4.08-.92,1.26-1.73-.82-10.95,4.77-4.1,5.65.15.66,1.66,1.4-.94,1.29-7.74-5.61.94-1.29,1.82,1.13.67-.06,3.65-5.03,1.56-12.57-1.46-1.46.92-1.26,7.04,5.11Z"/><path class="cls-2" d="M342.34,90.35c-1.59-1.66-2.61-3.46-3.02-5.22-.87-3.76.34-7.65,3.28-10.48,2.34-2.25,5.18-3.38,8.18-3.25,2.79.1,5.38,1.37,7.67,3.77,1.52,1.59,2.72,3.44,3.65,5.51l-3.84,3.68-1.63-1.7,2.04-2.8.08-.7c-.37-.84-.82-1.55-1.4-2.15-3.02-3.15-7.42-2.9-11.49,1-4.12,3.95-4.55,8.38-1.26,11.8.38.39.88.78,1.55,1.2h.68s3.33-2.08,3.33-2.08l1.59,1.65-3.95,3.79c-2.03-1.01-3.85-2.36-5.46-4.03Z"/><path class="cls-2" d="M350.62,96.51l1.3,1.45.71.1,13.54-10.25.05-.68-1.05-1.65,1.25-.94,9.7,12.8-3.99,3.02-1.35-1.78,1.95-2.07.08-.58-3.83-5.05-6.04,4.58,2.5,3.3.62.09,2.02-1.13,1.13,1.5-5.89,4.46-1.14-1.5,1.64-1.64.09-.62-2.5-3.3-6.6,5,4.46,5.89.66.02,3.02-1.61,1.31,1.73-4.54,3.44-10.33-13.64,1.24-.94Z"/><path class="cls-2" d="M362.8,112.75l1.16,1.5.78.21,14.59-8.44.16-.61-.88-1.85,1.35-.78,3.67,6.34-.74.43-8.22,16.02,11.81-6.83.24-.8-.75-1.81,1.3-.75,3.64,6.29-1.3.75-1.16-1.5-.8-.17-16.47,9.52-1.79-3.09,9.29-18.11-12.77,7.38-.24.73.77,1.84-1.32.77-3.64-6.29,1.33-.77Z"/><path class="cls-2" d="M400.14,143.08l-5.2,2.19-.85-2.03,2.93-1.83.2-.6-1.49-3.52-15.97,6.74-.26.7.66,1.97-1.44.61-3.71-8.78,1.44-.61.95,1.85.68.3,15.97-6.74-1.49-3.52-.58-.31-3.34.86-.86-2.03,5.2-2.19,7.15,16.94Z"/><path class="cls-2" d="M382.73,153.31l.7,1.82.63.35,16.3-4.79.28-.61-.39-1.91,1.5-.44,4.53,15.41-4.8,1.41-.63-2.14,2.56-1.25.28-.51-1.79-6.08-7.28,2.14,1.17,3.98.55.3,2.29-.34.53,1.8-7.09,2.08-.53-1.8,2.11-.95.3-.55-1.17-3.98-7.95,2.34,2.08,7.09.61.25,3.39-.43.61,2.08-5.47,1.61-4.82-16.42,1.5-.44Z"/><path class="cls-2" d="M409.51,179.29c.81,4.87-.66,7.7-4.15,8.28-2.89.48-5.03-1.07-6.28-4.51-.1,1.57-.51,2.73-1.4,3.62-1.22,1.2-2.88,1.74-4.35,2.6-1.62.95-1.93,1.97-1.58,4.08.02.13.04.25.07.41l-1.51.25c-.34-1.07-.61-2.13-.77-3.1-.23-1.35-.04-2.58.43-3.43.99-1.84,2.35-2.36,3.78-3.12,2.82-1.47,4.04-2.51,3.51-5.69-.03-.16-.06-.35-.09-.54l-7.07,1.18-.42.59.16,1.94-1.54.26-1.48-8.86,1.54-.26.47,1.83.59.42,16.75-2.79.36-.58-.15-1.88,1.54-.26,1.59,9.56ZM399,177.84c.04.41.1.79.16,1.14.56,3.36,2.15,4.75,5.04,4.27,2.58-.43,3.76-2.27,3.25-5.32l-.24-1.45-8.21,1.37Z"/><circle class="cls-2" cx="298.14" cy="380.49" r="7.08"/><circle class="cls-2" cx="131.23" cy="381.5" r="7.08"/></svg>